# xmcd
# Copyright (C) 1995-1998 Ti Kan
#
# Track frame offsets:
#       150
#       15913
#       23890
#       38514
#       49434
#       66417
#
# Disc length: 1117 seconds
#
# Revision: 0
# Processed by: cddbd v1.5PL3 Copyright (c) Steve Scherf et al.
# Submitted via: CD-Transfer v1.0
#
DISCID=45045b06
DTITLE=Brandstifter - 
DYEAR=2001
DGENRE=
TTITLE0=Brandstifter
TTITLE1=Myni Schwöschter
TTITLE2=Nid Wieder
TTITLE3=Sältsam
TTITLE4=Lüchtturm
TTITLE5=Dr Hafe Cha Mer Gschtole Sy
EXTD=
EXTT0=
EXTT1=
EXTT2=
EXTT3=
EXTT4=
EXTT5=
PLAYORDER=
